<?xml version="1.0" encoding="utf-8"?>
<!-- Generator: Adobe Illustrator 24.0.3, SVG Export Plug-In . SVG Version: 6.00 Build 0)  -->
<svg version="1.1" id="Capa_1" xmlns="http://www.w3.org/2000/svg" xmlns:xlink="http://www.w3.org/1999/xlink" x="0px" y="0px"
	 viewBox="0 0 300 300" style="enable-background:new 0 0 300 300;" xml:space="preserve">
<style type="text/css">
	.st0{fill:#F2F1F6;}
	.st1{opacity:0.41;fill:#878888;}
</style>
<g>
	<path class="st0" d="M294.5,150c0,79.8-64.7,144.5-144.5,144.5C70.2,294.5,5.5,229.8,5.5,150S70.2,5.5,150,5.5
		C229.8,5.5,294.5,70.2,294.5,150z"/>
	<path class="st1" d="M97.4,112.3c0,29.5,23.9,53.4,53.4,53.4c29.5,0,53.4-23.9,53.4-53.4s-23.9-53.4-53.4-53.4
		C121.3,58.9,97.4,82.8,97.4,112.3z"/>
	<path class="st1" d="M46.3,250.5c26.3,27.1,63,44,103.7,44c41.2,0,78.4-17.4,104.7-45.1c-17.5-40-57.4-68-103.9-68
		C103.9,181.4,63.6,209.9,46.3,250.5z"/>
</g>
</svg>
